<?xml version="1.0" standalone="no"?>
<!DOCTYPE svg PUBLIC "-//W3C//DTD SVG 20010904//EN"
 "http://www.w3.org/TR/2001/REC-SVG-20010904/DTD/svg10.dtd">
<svg version="1.0" xmlns="http://www.w3.org/2000/svg"
 width="512.000000pt" height="512.000000pt" viewBox="0 0 512.000000 512.000000"
 preserveAspectRatio="xMidYMid meet">
<metadata>
Created by potrace 1.11, written by Peter Selinger 2001-2013
</metadata>
<g transform="translate(0.000000,512.000000) scale(0.100000,-0.100000)"
fill="#000000" stroke="none">
<path d="M690 4603 c-126 -14 -245 -89 -314 -198 -114 -181 -132 -379 -66
-735 68 -368 70 -385 70 -518 0 -124 -2 -136 -25 -175 -50 -84 -158 -179 -290
-252 l-66 -37 3 -126 3 -126 55 -29 c129 -69 257 -182 299 -262 40 -76 26
-334 -33 -605 -43 -195 -51 -260 -51 -400 0 -121 4 -158 23 -225 44 -151 122
-263 230 -329 99 -60 144 -66 466 -66 l286 0 0 254 0 253 -112 6 c-131 6 -200
25 -260 70 -66 50 -91 110 -90 215 1 47 8 122 17 166 8 45 22 115 30 156 31
161 57 395 52 470 -10 133 -67 241 -198 374 l-78 80 82 80 c129 126 183 223
194 346 5 62 -11 191 -53 410 -47 250 -58 437 -31 502 28 67 66 107 133 139
65 31 195 59 272 59 l42 0 -2 253 -3 252 -275 1 c-151 1 -291 -1 -310 -3z"/>
<path d="M3848 4604 c-5 -4 -8 -119 -8 -256 l0 -248 43 0 c76 0 206 -29 271
-59 138 -66 174 -180 131 -417 -8 -49 -24 -136 -35 -194 -51 -283 -59 -458
-26 -545 31 -79 84 -154 173 -241 l82 -80 -78 -80 c-131 -133 -188 -241 -198
-374 -5 -75 21 -309 52 -470 8 -41 22 -111 30 -156 9 -44 16 -119 17 -166 1
-105 -24 -165 -90 -215 -60 -45 -129 -64 -259 -70 l-113 -6 0 -253 0 -254 286
0 c322 0 367 6 466 66 108 66 186 178 230 329 19 67 23 104 23 225 0 140 -8
205 -51 400 -37 170 -54 308 -54 434 0 114 3 137 21 171 42 80 170 193 299
262 l55 29 3 126 3 126 -66 37 c-132 73 -240 168 -290 252 -23 39 -25 51 -25
175 0 133 2 150 70 518 36 193 43 262 37 380 -15 280 -127 460 -332 535 -43
16 -92 19 -355 23 -168 2 -308 0 -312 -4z"/>
<path d="M2735 4014 c-33 -7 -123 -18 -200 -23 -77 -6 -158 -17 -180 -25 -22
-8 -50 -15 -62 -16 -24 0 -138 -53 -198 -92 -22 -14 -64 -47 -93 -72 -30 -25
-58 -44 -63 -40 -13 7 -11 48 2 61 6 6 9 17 7 24 -3 8 -18 0 -44 -24 -45 -40
-94 -146 -94 -202 0 -41 -11 -49 -66 -46 -51 2 -108 -20 -124 -48 -10 -19 -8
-21 17 -21 30 0 73 -24 73 -41 0 -6 -31 -41 -70 -79 -38 -38 -70 -76 -70 -84
0 -9 -9 -30 -20 -48 -11 -18 -20 -47 -20 -64 0 -17 -7 -51 -16 -75 -26 -71
-23 -281 5 -399 12 -52 26 -103 32 -113 10 -18 38 -166 39 -201 0 -16 -3 -15
-26 8 -35 34 -82 36 -56 1 4 -6 23 -22 43 -37 41 -31 52 -62 53 -155 1 -44 -3
-63 -11 -63 -7 0 -13 -9 -13 -20 0 -18 2 -17 26 5 30 28 40 30 50 13 5 -7 3
-8 -6 -3 -9 6 -11 4 -5 -6 11 -16 12 -22 21 -120 6 -72 6 -77 -17 -93 -32 -22
-39 -20 -39 12 0 16 -6 36 -12 45 -12 15 -13 14 -16 -10 -1 -16 -3 -37 -5 -48
-1 -16 5 -21 30 -23 18 -2 40 1 51 7 29 15 43 -2 48 -60 10 -103 51 -202 135
-328 71 -106 91 -128 184 -202 128 -102 190 -138 303 -175 75 -24 102 -28 202
-28 102 1 126 4 205 31 138 47 264 124 368 223 81 78 187 215 187 243 0 7 7
26 16 42 8 17 21 54 27 82 l12 53 29 -15 c56 -29 93 -16 126 44 11 22 4 26
-24 15 -9 -3 -16 -14 -16 -24 0 -10 -6 -23 -14 -29 -18 -15 -66 5 -67 28 -2
33 3 66 14 79 6 7 16 34 23 60 12 47 14 49 47 36 16 -6 18 -3 12 30 -5 23 -1
59 11 102 17 63 21 69 71 101 53 34 69 63 34 63 -10 0 -30 -9 -45 -21 -31 -24
-32 -16 -8 54 10 28 17 57 15 64 -3 7 17 74 44 150 l48 138 0 155 c0 137 -4
169 -29 270 -16 63 -37 133 -47 154 -11 22 -19 45 -19 51 0 7 -9 20 -20 30
-11 10 -20 23 -20 29 0 6 -18 37 -41 69 -32 47 -38 62 -28 73 9 11 8 14 -7 14
-23 0 -50 39 -107 155 -25 50 -57 107 -71 128 -14 21 -26 41 -26 44 0 18 -80
100 -126 129 -64 41 -96 44 -112 9 -14 -31 -100 -94 -129 -95 -20 0 -23 5 -23
39 0 23 8 48 20 64 33 41 27 57 -22 56 -24 -1 -70 -7 -103 -15z m-564 -834
c109 -20 222 -76 319 -159 70 -59 180 -183 180 -202 0 -5 9 -1 20 8 24 21 26
83 6 188 -8 39 -12 73 -9 78 9 15 104 -47 163 -107 68 -69 98 -111 131 -180
25 -54 19 -66 -37 -66 -76 0 -143 -44 -124 -81 13 -23 53 -25 130 -4 77 20 96
13 113 -44 8 -25 10 -50 6 -55 -7 -7 -125 -15 -254 -15 -31 -1 -37 -3 -25 -11
11 -8 1 -9 -37 -5 -37 5 -53 3 -53 -5 0 -6 -4 -9 -8 -6 -5 3 -42 6 -83 7 -41
1 -107 10 -148 20 -41 11 -85 19 -98 19 -12 0 -23 5 -23 11 0 6 -9 8 -20 4
-11 -3 -20 -2 -20 3 0 6 -9 8 -20 5 -11 -3 -20 -1 -20 3 0 5 -10 9 -22 10 -13
0 -36 4 -53 8 -101 23 -239 37 -312 33 l-83 -5 0 27 c0 73 25 215 51 285 41
114 119 200 206 232 47 16 57 17 124 4z m1032 -179 c21 -22 44 -59 52 -82 19
-53 35 -189 35 -301 l0 -86 -42 4 c-24 3 -62 7 -85 10 l-43 5 0 55 c0 69 18
69 100 2 40 -32 66 -37 56 -10 -14 34 -50 79 -82 101 l-33 23 -3 159 c-2 87
-1 159 2 159 3 0 23 -18 43 -39z m-1098 -461 c108 -10 240 -51 266 -81 24 -28
24 -29 -8 -20 -16 4 -33 6 -40 4 -6 -2 -26 8 -43 24 -17 15 -41 31 -53 35 -39
11 -151 8 -187 -6 -19 -8 -51 -19 -70 -26 -78 -28 -116 -50 -148 -87 l-25 -28
5 67 c10 123 60 143 303 118z m106 -72 c48 -16 94 -71 129 -154 l29 -71 -21
-44 c-11 -24 -30 -57 -41 -73 l-20 -29 -156 6 c-168 6 -162 -7 9 -19 52 -3 97
-8 99 -10 2 -2 -12 -11 -32 -19 -47 -19 -135 -19 -233 1 -68 14 -84 22 -121
58 -40 38 -43 45 -48 106 -4 43 -2 58 4 45 8 -18 9 -17 17 10 4 17 16 44 26
60 18 30 18 30 18 5 0 -25 16 -59 22 -50 2 3 16 24 30 46 69 108 193 165 289
132z m989 -14 c65 -8 117 -45 126 -89 8 -43 -2 -145 -23 -238 -11 -52 -22 -75
-45 -95 -51 -46 -112 -64 -215 -64 -78 0 -101 4 -148 26 -61 28 -69 38 -27 35
67 -5 71 4 8 17 -38 7 -75 19 -82 26 -15 17 -54 123 -54 148 0 11 3 20 8 20 4
0 13 14 21 32 25 55 111 135 154 143 38 7 93 -5 146 -32 38 -19 89 -82 121
-148 l29 -60 11 30 c6 16 9 40 5 52 -8 32 7 29 41 -9 25 -29 29 -31 32 -14 2
10 -2 30 -9 43 -26 49 -214 160 -308 183 -38 9 121 5 209 -6z m-299 -5 c-13
-5 -35 -18 -50 -28 -17 -12 -36 -17 -54 -14 -15 3 -34 0 -42 -7 -21 -18 -19 4
3 23 27 25 63 36 117 36 41 0 46 -2 26 -10z m-514 -139 l-14 -45 -7 44 c-6 32
-5 46 5 52 24 14 29 -5 16 -51z m263 -84 c6 -22 18 -59 26 -80 8 -22 12 -42 9
-44 -2 -2 -33 1 -68 7 -35 6 -88 11 -119 11 -30 0 -57 3 -61 6 -13 13 63 145
95 164 32 19 32 19 69 -2 27 -15 40 -31 49 -62z m-940 -4 c4 -34 11 -66 15
-72 3 -5 0 -19 -8 -31 -8 -11 -17 -17 -20 -12 -10 17 -27 156 -21 175 10 32
24 7 34 -60z m1027 56 c-3 -8 -6 -5 -6 6 -1 11 2 17 5 13 3 -3 4 -12 1 -19z
m679 -154 c-12 -31 -25 -3 -13 29 11 29 12 30 15 9 2 -13 1 -30 -2 -38z"/>
<path d="M2075 2781 c-77 -11 -175 -71 -175 -109 0 -17 9 -15 99 23 72 30 88
30 234 -7 66 -17 92 -20 105 -12 40 25 18 75 -42 93 -44 13 -162 20 -221 12z"/>
<path d="M2058 2439 c-15 -11 -34 -34 -43 -51 -19 -39 -20 -112 -1 -131 16
-15 177 -34 195 -23 5 4 12 2 16 -4 27 -43 72 70 54 135 -5 18 -25 47 -45 64
-30 27 -42 31 -92 31 -41 -1 -64 -6 -84 -21z m60 -55 c4 -29 -23 -51 -43 -34
-16 13 -20 42 -8 54 14 14 48 1 51 -20z"/>
<path d="M2894 2375 c-51 -30 -68 -69 -62 -136 8 -75 15 -79 132 -69 54 5 104
6 111 4 17 -7 27 10 36 59 12 69 -18 127 -80 153 -49 20 -90 17 -137 -11z m49
-47 c6 -18 -11 -48 -28 -48 -17 0 -34 30 -28 48 3 6 15 12 28 12 13 0 25 -6
28 -12z"/>
<path d="M1510 2490 c-9 -6 -10 -10 -3 -10 6 0 15 5 18 10 8 12 4 12 -15 0z"/>
<path d="M1470 2430 c-15 -30 -18 -45 -11 -58 9 -14 10 -13 11 11 0 15 7 41
15 57 9 17 13 30 10 30 -2 0 -14 -18 -25 -40z"/>
<path d="M3570 2354 c0 -5 9 -15 20 -22 12 -7 25 -23 30 -35 5 -14 9 -16 9 -6
1 8 -12 28 -29 44 -16 16 -30 24 -30 19z"/>
<path d="M1457 2276 c-3 -8 0 -34 7 -58 l14 -43 -5 55 c-6 62 -8 67 -16 46z"/>
<path d="M3628 2228 c5 -71 10 -77 11 -15 0 31 -2 57 -7 57 -4 0 -6 -19 -4
-42z"/>
<path d="M3616 2109 c-8 -42 0 -50 9 -9 4 17 5 34 2 36 -2 3 -7 -10 -11 -27z"/>
<path d="M1501 2050 c6 -19 16 -39 21 -45 5 -5 3 6 -3 25 -6 19 -16 39 -21 45
-5 5 -3 -6 3 -25z"/>
<path d="M3596 2045 c-9 -26 -7 -32 5 -12 6 10 9 21 6 23 -2 3 -7 -2 -11 -11z"/>
<path d="M1536 1963 c9 -36 13 -43 25 -43 6 0 6 7 0 19 -6 10 -9 20 -7 22 2 2
-2 10 -10 17 -13 12 -14 9 -8 -15z"/>
<path d="M3567 1970 c-3 -11 -3 -20 -1 -20 2 0 8 9 14 20 6 11 7 20 2 20 -6 0
-12 -9 -15 -20z"/>
<path d="M3521 1863 c-10 -26 -10 -27 4 -9 8 11 15 23 15 28 0 15 -7 8 -19
-19z"/>
</g>
</svg>
